<mxfile host="app.diagrams.net" modified="2023-06-30T17:32:58.236Z" agent="Mozilla/5.0 (Windows NT 10.0; Win64; x64) AppleWebKit/537.36 (KHTML, like Gecko) Chrome/114.0.0.0 Safari/537.36 Edg/114.0.1823.58" etag="Cdr_k3UqM5SGCVAYPAUx" version="21.5.2" type="github">
  <diagram name="Página-1" id="E1p9v8pBoWEj3WgLDj9f">
    <mxGraphModel dx="1195" dy="663" grid="1" gridSize="10" guides="1" tooltips="1" connect="1" arrows="1" fold="1" page="1" pageScale="1" pageWidth="827" pageHeight="1169" math="0" shadow="0">
      <root>
        <mxCell id="0" />
        <mxCell id="1" parent="0" />
        <mxCell id="jvywD9BA92uQSTaPeyf7-11" value="" style="edgeStyle=orthogonalEdgeStyle;rounded=0;orthogonalLoop=1;jettySize=auto;html=1;" edge="1" parent="1" source="jvywD9BA92uQSTaPeyf7-1" target="jvywD9BA92uQSTaPeyf7-10">
          <mxGeometry relative="1" as="geometry" />
        </mxCell>
        <mxCell id="jvywD9BA92uQSTaPeyf7-37" style="edgeStyle=orthogonalEdgeStyle;rounded=0;orthogonalLoop=1;jettySize=auto;html=1;entryX=0.049;entryY=0.511;entryDx=0;entryDy=0;entryPerimeter=0;" edge="1" parent="1" source="jvywD9BA92uQSTaPeyf7-1" target="jvywD9BA92uQSTaPeyf7-36">
          <mxGeometry relative="1" as="geometry" />
        </mxCell>
        <mxCell id="jvywD9BA92uQSTaPeyf7-1" value="Sucursales" style="whiteSpace=wrap;html=1;align=center;fillColor=#d5e8d4;strokeColor=#82b366;" vertex="1" parent="1">
          <mxGeometry x="140" y="200" width="100" height="40" as="geometry" />
        </mxCell>
        <mxCell id="jvywD9BA92uQSTaPeyf7-8" style="edgeStyle=orthogonalEdgeStyle;rounded=0;orthogonalLoop=1;jettySize=auto;html=1;entryX=1;entryY=0.75;entryDx=0;entryDy=0;" edge="1" parent="1" source="jvywD9BA92uQSTaPeyf7-2" target="jvywD9BA92uQSTaPeyf7-1">
          <mxGeometry relative="1" as="geometry">
            <Array as="points">
              <mxPoint x="310" y="230" />
            </Array>
          </mxGeometry>
        </mxCell>
        <mxCell id="jvywD9BA92uQSTaPeyf7-2" value="Teléfono" style="ellipse;whiteSpace=wrap;html=1;align=center;" vertex="1" parent="1">
          <mxGeometry x="260" y="130" width="100" height="40" as="geometry" />
        </mxCell>
        <mxCell id="jvywD9BA92uQSTaPeyf7-6" value="" style="edgeStyle=orthogonalEdgeStyle;rounded=0;orthogonalLoop=1;jettySize=auto;html=1;" edge="1" parent="1" source="jvywD9BA92uQSTaPeyf7-3" target="jvywD9BA92uQSTaPeyf7-1">
          <mxGeometry relative="1" as="geometry" />
        </mxCell>
        <mxCell id="jvywD9BA92uQSTaPeyf7-3" value="Domicilio" style="ellipse;whiteSpace=wrap;html=1;align=center;" vertex="1" parent="1">
          <mxGeometry x="140" y="130" width="100" height="40" as="geometry" />
        </mxCell>
        <mxCell id="jvywD9BA92uQSTaPeyf7-7" style="edgeStyle=orthogonalEdgeStyle;rounded=0;orthogonalLoop=1;jettySize=auto;html=1;entryX=0;entryY=0.75;entryDx=0;entryDy=0;" edge="1" parent="1" source="jvywD9BA92uQSTaPeyf7-4" target="jvywD9BA92uQSTaPeyf7-1">
          <mxGeometry relative="1" as="geometry">
            <Array as="points">
              <mxPoint x="70" y="230" />
            </Array>
          </mxGeometry>
        </mxCell>
        <mxCell id="jvywD9BA92uQSTaPeyf7-4" value="Código sucursal" style="ellipse;whiteSpace=wrap;html=1;align=center;fillColor=#d5e8d4;strokeColor=#82b366;" vertex="1" parent="1">
          <mxGeometry x="20" y="130" width="100" height="40" as="geometry" />
        </mxCell>
        <mxCell id="jvywD9BA92uQSTaPeyf7-9" value="Empleados" style="whiteSpace=wrap;html=1;align=center;fillColor=#f8cecc;strokeColor=#b85450;" vertex="1" parent="1">
          <mxGeometry x="140" y="390" width="100" height="40" as="geometry" />
        </mxCell>
        <mxCell id="jvywD9BA92uQSTaPeyf7-13" value="" style="edgeStyle=orthogonalEdgeStyle;rounded=0;orthogonalLoop=1;jettySize=auto;html=1;" edge="1" parent="1" source="jvywD9BA92uQSTaPeyf7-10" target="jvywD9BA92uQSTaPeyf7-9">
          <mxGeometry relative="1" as="geometry" />
        </mxCell>
        <mxCell id="jvywD9BA92uQSTaPeyf7-10" value="TIENE" style="shape=rhombus;perimeter=rhombusPerimeter;whiteSpace=wrap;html=1;align=center;" vertex="1" parent="1">
          <mxGeometry x="130" y="280" width="120" height="60" as="geometry" />
        </mxCell>
        <mxCell id="jvywD9BA92uQSTaPeyf7-18" style="edgeStyle=orthogonalEdgeStyle;rounded=0;orthogonalLoop=1;jettySize=auto;html=1;entryX=0;entryY=0.25;entryDx=0;entryDy=0;" edge="1" parent="1" source="jvywD9BA92uQSTaPeyf7-14" target="jvywD9BA92uQSTaPeyf7-9">
          <mxGeometry relative="1" as="geometry">
            <Array as="points">
              <mxPoint x="40" y="400" />
            </Array>
          </mxGeometry>
        </mxCell>
        <mxCell id="jvywD9BA92uQSTaPeyf7-14" value="Nombre" style="ellipse;whiteSpace=wrap;html=1;align=center;" vertex="1" parent="1">
          <mxGeometry x="10" y="470" width="70" height="40" as="geometry" />
        </mxCell>
        <mxCell id="jvywD9BA92uQSTaPeyf7-19" style="edgeStyle=orthogonalEdgeStyle;rounded=0;orthogonalLoop=1;jettySize=auto;html=1;entryX=0;entryY=0.75;entryDx=0;entryDy=0;" edge="1" parent="1" source="jvywD9BA92uQSTaPeyf7-15" target="jvywD9BA92uQSTaPeyf7-9">
          <mxGeometry relative="1" as="geometry">
            <Array as="points">
              <mxPoint x="120" y="420" />
            </Array>
          </mxGeometry>
        </mxCell>
        <mxCell id="jvywD9BA92uQSTaPeyf7-15" value="Apellidos" style="ellipse;whiteSpace=wrap;html=1;align=center;" vertex="1" parent="1">
          <mxGeometry x="90" y="470" width="70" height="40" as="geometry" />
        </mxCell>
        <mxCell id="jvywD9BA92uQSTaPeyf7-20" value="" style="edgeStyle=orthogonalEdgeStyle;rounded=0;orthogonalLoop=1;jettySize=auto;html=1;" edge="1" parent="1" source="jvywD9BA92uQSTaPeyf7-16" target="jvywD9BA92uQSTaPeyf7-9">
          <mxGeometry relative="1" as="geometry">
            <Array as="points">
              <mxPoint x="200" y="440" />
              <mxPoint x="200" y="440" />
            </Array>
          </mxGeometry>
        </mxCell>
        <mxCell id="jvywD9BA92uQSTaPeyf7-16" value="NIF" style="ellipse;whiteSpace=wrap;html=1;align=center;fillColor=#f8cecc;strokeColor=#b85450;" vertex="1" parent="1">
          <mxGeometry x="170" y="470" width="60" height="40" as="geometry" />
        </mxCell>
        <mxCell id="jvywD9BA92uQSTaPeyf7-21" style="edgeStyle=orthogonalEdgeStyle;rounded=0;orthogonalLoop=1;jettySize=auto;html=1;entryX=1;entryY=0.75;entryDx=0;entryDy=0;" edge="1" parent="1" source="jvywD9BA92uQSTaPeyf7-17" target="jvywD9BA92uQSTaPeyf7-9">
          <mxGeometry relative="1" as="geometry" />
        </mxCell>
        <mxCell id="jvywD9BA92uQSTaPeyf7-17" value="Teléfono" style="ellipse;whiteSpace=wrap;html=1;align=center;" vertex="1" parent="1">
          <mxGeometry x="240" y="470" width="80" height="40" as="geometry" />
        </mxCell>
        <mxCell id="jvywD9BA92uQSTaPeyf7-22" value="1" style="text;strokeColor=none;fillColor=none;spacingLeft=4;spacingRight=4;overflow=hidden;rotatable=0;points=[[0,0.5],[1,0.5]];portConstraint=eastwest;fontSize=12;whiteSpace=wrap;html=1;" vertex="1" parent="1">
          <mxGeometry x="200" y="360" width="20" height="20" as="geometry" />
        </mxCell>
        <mxCell id="jvywD9BA92uQSTaPeyf7-23" value="N" style="text;strokeColor=none;fillColor=none;spacingLeft=4;spacingRight=4;overflow=hidden;rotatable=0;points=[[0,0.5],[1,0.5]];portConstraint=eastwest;fontSize=12;whiteSpace=wrap;html=1;" vertex="1" parent="1">
          <mxGeometry x="250" y="200" width="20" height="20" as="geometry" />
        </mxCell>
        <mxCell id="jvywD9BA92uQSTaPeyf7-24" value="N:M" style="text;strokeColor=none;fillColor=none;spacingLeft=4;spacingRight=4;overflow=hidden;rotatable=0;points=[[0,0.5],[1,0.5]];portConstraint=eastwest;fontSize=12;whiteSpace=wrap;html=1;" vertex="1" parent="1">
          <mxGeometry x="371.99999999999994" y="250" width="36" height="20" as="geometry" />
        </mxCell>
        <mxCell id="jvywD9BA92uQSTaPeyf7-25" value="1" style="text;strokeColor=none;fillColor=none;spacingLeft=4;spacingRight=4;overflow=hidden;rotatable=0;points=[[0,0.5],[1,0.5]];portConstraint=eastwest;fontSize=12;whiteSpace=wrap;html=1;" vertex="1" parent="1">
          <mxGeometry x="200" y="240" width="20" height="20" as="geometry" />
        </mxCell>
        <mxCell id="jvywD9BA92uQSTaPeyf7-26" value="1:1" style="text;strokeColor=none;fillColor=none;spacingLeft=4;spacingRight=4;overflow=hidden;rotatable=0;points=[[0,0.5],[1,0.5]];portConstraint=eastwest;fontSize=12;whiteSpace=wrap;html=1;" vertex="1" parent="1">
          <mxGeometry x="250" y="295" width="30" height="20" as="geometry" />
        </mxCell>
        <mxCell id="jvywD9BA92uQSTaPeyf7-27" value="Revistas" style="whiteSpace=wrap;html=1;align=center;fillColor=#e1d5e7;strokeColor=#9673a6;" vertex="1" parent="1">
          <mxGeometry x="560" y="200" width="100" height="40" as="geometry" />
        </mxCell>
        <mxCell id="jvywD9BA92uQSTaPeyf7-34" style="edgeStyle=orthogonalEdgeStyle;rounded=0;orthogonalLoop=1;jettySize=auto;html=1;" edge="1" parent="1" source="jvywD9BA92uQSTaPeyf7-28" target="jvywD9BA92uQSTaPeyf7-27">
          <mxGeometry relative="1" as="geometry" />
        </mxCell>
        <mxCell id="jvywD9BA92uQSTaPeyf7-28" value="N. registro" style="ellipse;whiteSpace=wrap;html=1;align=center;" vertex="1" parent="1">
          <mxGeometry x="536" y="130" width="100" height="40" as="geometry" />
        </mxCell>
        <mxCell id="jvywD9BA92uQSTaPeyf7-32" style="edgeStyle=orthogonalEdgeStyle;rounded=0;orthogonalLoop=1;jettySize=auto;html=1;entryX=1;entryY=0.62;entryDx=0;entryDy=0;entryPerimeter=0;" edge="1" parent="1" source="jvywD9BA92uQSTaPeyf7-29" target="jvywD9BA92uQSTaPeyf7-27">
          <mxGeometry relative="1" as="geometry">
            <Array as="points">
              <mxPoint x="750" y="225" />
            </Array>
          </mxGeometry>
        </mxCell>
        <mxCell id="jvywD9BA92uQSTaPeyf7-29" value="Título" style="ellipse;whiteSpace=wrap;html=1;align=center;" vertex="1" parent="1">
          <mxGeometry x="720" y="130" width="60" height="40" as="geometry" />
        </mxCell>
        <mxCell id="jvywD9BA92uQSTaPeyf7-35" style="edgeStyle=orthogonalEdgeStyle;rounded=0;orthogonalLoop=1;jettySize=auto;html=1;entryX=0;entryY=0.5;entryDx=0;entryDy=0;" edge="1" parent="1" source="jvywD9BA92uQSTaPeyf7-30" target="jvywD9BA92uQSTaPeyf7-27">
          <mxGeometry relative="1" as="geometry">
            <Array as="points">
              <mxPoint x="480" y="190" />
              <mxPoint x="560" y="190" />
            </Array>
          </mxGeometry>
        </mxCell>
        <mxCell id="jvywD9BA92uQSTaPeyf7-30" value="Periodicidad" style="ellipse;whiteSpace=wrap;html=1;align=center;" vertex="1" parent="1">
          <mxGeometry x="430" y="130" width="100" height="40" as="geometry" />
        </mxCell>
        <mxCell id="jvywD9BA92uQSTaPeyf7-33" style="edgeStyle=orthogonalEdgeStyle;rounded=0;orthogonalLoop=1;jettySize=auto;html=1;entryX=1;entryY=0.25;entryDx=0;entryDy=0;" edge="1" parent="1" source="jvywD9BA92uQSTaPeyf7-31" target="jvywD9BA92uQSTaPeyf7-27">
          <mxGeometry relative="1" as="geometry" />
        </mxCell>
        <mxCell id="jvywD9BA92uQSTaPeyf7-31" value="Tipo" style="ellipse;whiteSpace=wrap;html=1;align=center;" vertex="1" parent="1">
          <mxGeometry x="650" y="130" width="60" height="40" as="geometry" />
        </mxCell>
        <mxCell id="jvywD9BA92uQSTaPeyf7-38" style="edgeStyle=orthogonalEdgeStyle;rounded=0;orthogonalLoop=1;jettySize=auto;html=1;entryX=0;entryY=0.5;entryDx=0;entryDy=0;" edge="1" parent="1" source="jvywD9BA92uQSTaPeyf7-36" target="jvywD9BA92uQSTaPeyf7-27">
          <mxGeometry relative="1" as="geometry" />
        </mxCell>
        <mxCell id="jvywD9BA92uQSTaPeyf7-36" value="Publica" style="shape=rhombus;perimeter=rhombusPerimeter;whiteSpace=wrap;html=1;align=center;" vertex="1" parent="1">
          <mxGeometry x="330" y="190" width="120" height="60" as="geometry" />
        </mxCell>
        <mxCell id="jvywD9BA92uQSTaPeyf7-39" value="1" style="text;strokeColor=none;fillColor=none;spacingLeft=4;spacingRight=4;overflow=hidden;rotatable=0;points=[[0,0.5],[1,0.5]];portConstraint=eastwest;fontSize=12;whiteSpace=wrap;html=1;" vertex="1" parent="1">
          <mxGeometry x="530" y="200" width="20" height="20" as="geometry" />
        </mxCell>
        <mxCell id="jvywD9BA92uQSTaPeyf7-42" value="" style="edgeStyle=orthogonalEdgeStyle;rounded=0;orthogonalLoop=1;jettySize=auto;html=1;" edge="1" parent="1" source="jvywD9BA92uQSTaPeyf7-40" target="jvywD9BA92uQSTaPeyf7-41">
          <mxGeometry relative="1" as="geometry" />
        </mxCell>
        <mxCell id="jvywD9BA92uQSTaPeyf7-40" value="Periodistas" style="whiteSpace=wrap;html=1;align=center;fillColor=#fff2cc;strokeColor=#d6b656;" vertex="1" parent="1">
          <mxGeometry x="560" y="390" width="100" height="40" as="geometry" />
        </mxCell>
        <mxCell id="jvywD9BA92uQSTaPeyf7-44" style="edgeStyle=orthogonalEdgeStyle;rounded=0;orthogonalLoop=1;jettySize=auto;html=1;entryX=0.462;entryY=1.034;entryDx=0;entryDy=0;entryPerimeter=0;" edge="1" parent="1" source="jvywD9BA92uQSTaPeyf7-41" target="jvywD9BA92uQSTaPeyf7-27">
          <mxGeometry relative="1" as="geometry" />
        </mxCell>
        <mxCell id="jvywD9BA92uQSTaPeyf7-41" value="Escriben" style="shape=rhombus;perimeter=rhombusPerimeter;whiteSpace=wrap;html=1;align=center;" vertex="1" parent="1">
          <mxGeometry x="550" y="275" width="120" height="60" as="geometry" />
        </mxCell>
        <mxCell id="jvywD9BA92uQSTaPeyf7-54" style="edgeStyle=orthogonalEdgeStyle;rounded=0;orthogonalLoop=1;jettySize=auto;html=1;entryX=0;entryY=0.5;entryDx=0;entryDy=0;" edge="1" parent="1" source="jvywD9BA92uQSTaPeyf7-45" target="jvywD9BA92uQSTaPeyf7-40">
          <mxGeometry relative="1" as="geometry">
            <Array as="points">
              <mxPoint x="485" y="410" />
            </Array>
          </mxGeometry>
        </mxCell>
        <mxCell id="jvywD9BA92uQSTaPeyf7-45" value="Nombre" style="ellipse;whiteSpace=wrap;html=1;align=center;" vertex="1" parent="1">
          <mxGeometry x="450" y="460" width="70" height="40" as="geometry" />
        </mxCell>
        <mxCell id="jvywD9BA92uQSTaPeyf7-53" style="edgeStyle=orthogonalEdgeStyle;rounded=0;orthogonalLoop=1;jettySize=auto;html=1;entryX=0.082;entryY=0.956;entryDx=0;entryDy=0;entryPerimeter=0;" edge="1" parent="1" source="jvywD9BA92uQSTaPeyf7-46" target="jvywD9BA92uQSTaPeyf7-40">
          <mxGeometry relative="1" as="geometry" />
        </mxCell>
        <mxCell id="jvywD9BA92uQSTaPeyf7-46" value="Apellidos" style="ellipse;whiteSpace=wrap;html=1;align=center;" vertex="1" parent="1">
          <mxGeometry x="530" y="460" width="70" height="40" as="geometry" />
        </mxCell>
        <mxCell id="jvywD9BA92uQSTaPeyf7-55" style="edgeStyle=orthogonalEdgeStyle;rounded=0;orthogonalLoop=1;jettySize=auto;html=1;entryX=1;entryY=0.5;entryDx=0;entryDy=0;" edge="1" parent="1" source="jvywD9BA92uQSTaPeyf7-47" target="jvywD9BA92uQSTaPeyf7-40">
          <mxGeometry relative="1" as="geometry">
            <Array as="points">
              <mxPoint x="730" y="410" />
            </Array>
          </mxGeometry>
        </mxCell>
        <mxCell id="jvywD9BA92uQSTaPeyf7-47" value="Teléfono" style="ellipse;whiteSpace=wrap;html=1;align=center;" vertex="1" parent="1">
          <mxGeometry x="700" y="460" width="60" height="40" as="geometry" />
        </mxCell>
        <mxCell id="jvywD9BA92uQSTaPeyf7-52" style="edgeStyle=orthogonalEdgeStyle;rounded=0;orthogonalLoop=1;jettySize=auto;html=1;entryX=0.882;entryY=1.042;entryDx=0;entryDy=0;entryPerimeter=0;" edge="1" parent="1" source="jvywD9BA92uQSTaPeyf7-48" target="jvywD9BA92uQSTaPeyf7-40">
          <mxGeometry relative="1" as="geometry">
            <Array as="points">
              <mxPoint x="660" y="440" />
              <mxPoint x="648" y="440" />
            </Array>
          </mxGeometry>
        </mxCell>
        <mxCell id="jvywD9BA92uQSTaPeyf7-48" value="Especialidad" style="ellipse;whiteSpace=wrap;html=1;align=center;fillColor=#fff2cc;strokeColor=#d6b656;" vertex="1" parent="1">
          <mxGeometry x="610" y="460" width="80" height="40" as="geometry" />
        </mxCell>
        <mxCell id="jvywD9BA92uQSTaPeyf7-49" value="1" style="text;strokeColor=none;fillColor=none;spacingLeft=4;spacingRight=4;overflow=hidden;rotatable=0;points=[[0,0.5],[1,0.5]];portConstraint=eastwest;fontSize=12;whiteSpace=wrap;html=1;" vertex="1" parent="1">
          <mxGeometry x="620" y="370" width="20" height="20" as="geometry" />
        </mxCell>
        <mxCell id="jvywD9BA92uQSTaPeyf7-50" value="N" style="text;strokeColor=none;fillColor=none;spacingLeft=4;spacingRight=4;overflow=hidden;rotatable=0;points=[[0,0.5],[1,0.5]];portConstraint=eastwest;fontSize=12;whiteSpace=wrap;html=1;" vertex="1" parent="1">
          <mxGeometry x="616" y="240" width="20" height="20" as="geometry" />
        </mxCell>
        <mxCell id="jvywD9BA92uQSTaPeyf7-51" value="N:M" style="text;strokeColor=none;fillColor=none;spacingLeft=4;spacingRight=4;overflow=hidden;rotatable=0;points=[[0,0.5],[1,0.5]];portConstraint=eastwest;fontSize=12;whiteSpace=wrap;html=1;" vertex="1" parent="1">
          <mxGeometry x="674" y="295" width="36" height="20" as="geometry" />
        </mxCell>
      </root>
    </mxGraphModel>
  </diagram>
</mxfile>
